<svg xmlns="http://www.w3.org/2000/svg" xmlns:xlink="http://www.w3.org/1999/xlink" version="1.1" x="0px" y="0px" viewBox="0 0 293.8 122" style="enable-background:new 0 0 293.8 122;" xml:space="preserve" class="svg replaced-svg">
<g id="Layer_1">
	<g>
		<path d="M12.7,11.3V15h1.7c5.4,0,10.5,0,10.5,6.6v85.5c0,3.2-0.9,9.5-5.4,9.5c-7.8,0-1.9-12.1-12.2-12.1c-4.6,0-7.3,3.5-7.3,7    c0,8.1,7.3,10.6,14.6,10.6c15.7,0,26.3-15.9,26.3-30.5V21.6c0-5.5,4.7-6.6,8.6-6.6h1.9v-3.7c-5.2,0-13,0.5-19.4,0.5    C25.5,11.8,18.2,11.3,12.7,11.3z"></path>
		<path d="M101.4,88.5c-3.5,0-3.9-3.9-3.9-9.2V53.9c0-10.8-5.9-16.6-16.8-16.6c-2.5,0-4.7,0.1-7.5,1.7c-4.7,2.7-9.3,5.1-13.4,7.2    c-3.9,2-6.8,5.6-6.8,10.5c0,1.9,1,2.9,2.4,2.9c1.9,0,8.6-1.6,8.9-5c0.5-7,2.3-8.8,9.6-8.8c5.6,0,9.8,2.9,9.8,10.1v7l-15.4,5.4    c-8.8,3.2-16.8,6.2-16.8,15.9c0,8.2,6.1,12.8,13.6,12.8c8,0,13.6-4.5,19-9.8c0.5,5.7,3.5,9.8,9.5,9.8c6,0,9.3-3.2,13.1-7.8    l-1.6-2.3C104.1,87.7,102.5,88.5,101.4,88.5z M83.6,81.9c-1.4,1.9-5,6.6-10.7,6.6c-4.9,0-7.6-2.7-7.6-8.1    c0-8.7,11.5-11.1,18.3-13.3V81.9z"></path>
		<path d="M206.4,91.5c-3.4-0.1-5.6-0.6-5.6-3.9V53.4c0-10.8-6.6-16.1-15.6-16.1c-6.6,0-13.8,5.2-20.2,9.2    c-2.5-6.4-7.9-9.2-14.7-9.2c-6.7,0-13.9,5.6-19.3,9.1v-8l-1.4-1.1c-2.7,1.1-5.7,2.7-8.6,3.7c-3.2,1.1-7.5,2.6-11.3,3.6v3    c1.5,0.4,2.9,0.9,4.4,1.2c2.7,0.7,3,1.5,3,3.5v35.2c0,3.7-2.9,3.7-6.5,3.7h-0.9v3.7c4.6-0.2,9.6-0.5,14.7-0.5    c4.7,0,9.5,0.3,14.3,0.5v-3.7h-1.5c-2.9,0-6.2-0.1-6.2-3.9V51.2c2.7-2.2,7.5-4.6,11.3-4.6c6.2,0,9.6,3.1,9.6,10.3v30.6    c0,3.4-2.6,3.9-6,3.9h-1.5v3.7c5-0.2,9.8-0.5,14.8-0.5c4.6,0,9.3,0.3,13.9,0.5v-3.7h-1.6c-3.4,0-5.7-0.5-5.7-3.9V50.3    c2.9-1.6,7.6-3.7,11.3-3.7c6.2,0,9.6,3.1,9.6,10.3v30.9c0,3.1-2.5,3.6-5.7,3.6h-1.7v3.7c4.9-0.2,9.7-0.5,14.7-0.5    c4.6,0,9.3,0.3,14,0.5l0-3.6H206.4z"></path>
		<path d="M248.4,37.4c-7.8,0-12.6,3.4-18.7,8V1l-1.5-1c-6.6,3.6-13.8,6.3-20.8,8.7v2.1c2.7,0.9,5.5,1.9,8.3,3v71.6    c0,3.5-0.1,6.9-0.5,10.3l2,1.2c1.6-1.9,3.9-3.6,5.6-4.7c3.6,2.7,10.5,4.7,17.9,4.7c17.1,0,31.3-13,31.3-32.3    C272.1,49.7,263.8,37.4,248.4,37.4z M242.6,92.5c-6.2,0-11.3-6.1-12.8-9V49.3c2.9-1.9,6-3.5,10.1-3.5c11.8,0,17.1,13.9,17.1,24.9    C256.9,80.3,254.4,92.5,242.6,92.5z"></path>
		<path d="M284.1,78.3c-5.1,0-9.5,4.6-9.5,9.7c0,5.2,4.5,9.5,9.5,9.5c5.2,0,9.7-4.4,9.7-9.5C293.8,82.9,289.2,78.3,284.1,78.3z"></path>
	</g>
</g>
<g id="Annotations">
</g>
</svg>